<?xml version="1.0" encoding="utf-8"?>
<!-- Generator: Adobe Illustrator 19.1.0, SVG Export Plug-In . SVG Version: 6.00 Build 0)  -->
<svg version="1.1" id="Layer_1" xmlns="http://www.w3.org/2000/svg" xmlns:xlink="http://www.w3.org/1999/xlink" x="0px" y="0px"
	 width="47px" height="47px" viewBox="0 0 47 47" style="enable-background:new 0 0 47 47;" xml:space="preserve">
<g>
	<path d="M23.5,1C35.926,1,46,11.074,46,23.5C46,35.926,35.926,46,23.5,46C11.074,46,1,35.926,1,23.5C1,11.074,11.074,1,23.5,1
		 M23.5,0C10.542,0,0,10.542,0,23.5S10.542,47,23.5,47S47,36.458,47,23.5S36.458,0,23.5,0L23.5,0z"/>
</g>
<path d="M34.782,11.283c0.472,0,0.945,0.177,1.31,0.53c0.713,0.738,0.707,1.913-0.022,2.642l-6.782,6.782l4.495,15.494l-2.553,2.553
	l-7.093-12.896l-5.233,5.233l0.689,4.023l-1.915,1.915l-2.341-4.992l-4.992-2.341l1.915-1.915l4.023,0.689l5.233-5.233L8.622,16.674
	l2.553-2.553l15.494,4.495l6.782-6.782C33.818,11.467,34.3,11.283,34.782,11.283 M34.782,10.283L34.782,10.283
	c-0.77,0-1.494,0.3-2.039,0.844l-6.364,6.364l-14.926-4.33c-0.092-0.027-0.186-0.04-0.279-0.04c-0.262,0-0.517,0.103-0.707,0.293
	l-2.553,2.553c-0.222,0.222-0.327,0.536-0.283,0.848s0.232,0.584,0.508,0.735l11.729,6.451l-3.926,3.926l-3.513-0.602
	c-0.056-0.01-0.113-0.014-0.169-0.014c-0.263,0-0.518,0.104-0.707,0.293l-1.915,1.915c-0.23,0.23-0.334,0.559-0.278,0.88
	c0.056,0.321,0.265,0.594,0.56,0.733l4.664,2.187l2.187,4.664c0.138,0.295,0.412,0.504,0.733,0.56
	c0.057,0.01,0.115,0.015,0.173,0.015c0.263,0,0.518-0.104,0.707-0.293l1.915-1.915c0.229-0.229,0.333-0.556,0.279-0.876
	l-0.602-3.513l3.926-3.926l6.451,11.729c0.152,0.276,0.424,0.464,0.735,0.508c0.047,0.007,0.094,0.01,0.141,0.01
	c0.263,0,0.518-0.104,0.707-0.293l2.553-2.553c0.258-0.258,0.355-0.636,0.253-0.986l-4.33-14.926l6.364-6.364
	c1.105-1.105,1.12-2.919,0.034-4.044C36.246,10.571,35.534,10.283,34.782,10.283L34.782,10.283z"/>
</svg>
