<?xml version="1.0" encoding="utf-8"?>
<!-- Generator: Adobe Illustrator 19.1.0, SVG Export Plug-In . SVG Version: 6.00 Build 0)  -->
<svg version="1.1" id="Layer_1" xmlns="http://www.w3.org/2000/svg" xmlns:xlink="http://www.w3.org/1999/xlink" x="0px" y="0px"
	 width="47px" height="47px" viewBox="0 0 47 47" style="enable-background:new 0 0 47 47;" xml:space="preserve">
<g>
	<path d="M23.5,1C35.926,1,46,11.074,46,23.5C46,35.926,35.926,46,23.5,46C11.074,46,1,35.926,1,23.5C1,11.074,11.074,1,23.5,1
		 M23.5,0C10.542,0,0,10.542,0,23.5S10.542,47,23.5,47S47,36.458,47,23.5S36.458,0,23.5,0L23.5,0z"/>
</g>
<path d="M31.946,34.997c-0.075,0-0.15-0.017-0.222-0.052c-0.248-0.123-0.349-0.423-0.227-0.67l5.356-10.816L23.5,14.845
	l-13.354,8.614l5.301,10.704c0.123,0.247,0.021,0.547-0.227,0.67c-0.249,0.122-0.547,0.021-0.67-0.227L9.052,23.502
	c-0.113-0.228-0.037-0.504,0.177-0.642l14-9.03c0.165-0.106,0.377-0.107,0.542,0l14.001,9.031c0.213,0.138,0.289,0.415,0.177,0.642
	l-5.555,11.216C32.306,34.895,32.129,34.997,31.946,34.997z"/>
<path d="M32.5,19.97c-0.276,0-0.5-0.224-0.5-0.5v-4.552c0-0.276,0.224-0.5,0.5-0.5H34V9.46H13v4.958h1.5c0.276,0,0.5,0.224,0.5,0.5
	v4.552c0,0.276-0.224,0.5-0.5,0.5s-0.5-0.224-0.5-0.5v-4.052h-1.5c-0.276,0-0.5-0.224-0.5-0.5V8.96c0-0.276,0.224-0.5,0.5-0.5h22
	c0.276,0,0.5,0.224,0.5,0.5v5.958c0,0.276-0.224,0.5-0.5,0.5H33v4.052C33,19.747,32.777,19.97,32.5,19.97z"/>
<path d="M30.528,35.256c-1.199,0-2.398-0.497-3.72-1.492c-2.226-1.675-4.298-1.673-6.521,0c-2.643,1.988-4.607,1.99-7.25,0
	c-2.244-1.69-3.993-1.689-6.236,0c-0.221,0.166-0.534,0.123-0.7-0.099c-0.166-0.221-0.122-0.534,0.099-0.7
	c2.607-1.963,4.832-1.963,7.439,0c2.288,1.723,3.758,1.723,6.047,0c2.598-1.956,5.124-1.958,7.724,0
	c2.303,1.734,3.934,1.734,6.236,0c2.642-1.988,4.514-1.99,7.155,0c0.221,0.166,0.265,0.479,0.099,0.7
	c-0.167,0.223-0.481,0.263-0.7,0.099c-2.279-1.717-3.671-1.717-5.952,0C32.927,34.758,31.727,35.256,30.528,35.256z"/>
<path d="M31.498,12.417H15.502c-0.276,0-0.5-0.224-0.5-0.5s0.224-0.5,0.5-0.5h15.997c0.276,0,0.5,0.224,0.5,0.5
	S31.775,12.417,31.498,12.417z"/>
</svg>
