<?xml version="1.0" encoding="utf-8"?>
<!-- Generator: Adobe Illustrator 19.1.0, SVG Export Plug-In . SVG Version: 6.00 Build 0)  -->
<svg version="1.1" id="Layer_1" xmlns="http://www.w3.org/2000/svg" xmlns:xlink="http://www.w3.org/1999/xlink" x="0px" y="0px"
	 width="47px" height="47px" viewBox="0 0 47 47" style="enable-background:new 0 0 47 47;" xml:space="preserve">
<g>
	<path d="M23.5,1C35.926,1,46,11.074,46,23.5C46,35.926,35.926,46,23.5,46C11.074,46,1,35.926,1,23.5C1,11.074,11.074,1,23.5,1
		 M23.5,0C10.542,0,0,10.542,0,23.5S10.542,47,23.5,47S47,36.458,47,23.5S36.458,0,23.5,0L23.5,0z"/>
</g>
<path d="M23.5,41.051c-0.276,0-0.5-0.224-0.5-0.5V28.123c0-0.276,0.224-0.5,0.5-0.5s0.5,0.224,0.5,0.5v12.429
	C24,40.828,23.776,41.051,23.5,41.051z"/>
<path d="M23.5,21.431c-0.276,0-0.5-0.224-0.5-0.5v-2.696c0-0.276,0.224-0.5,0.5-0.5s0.5,0.224,0.5,0.5v2.696
	C24,21.208,23.776,21.431,23.5,21.431z"/>
<path d="M23.5,11.378c-0.276,0-0.5-0.224-0.5-0.5V6.957c0-0.276,0.224-0.5,0.5-0.5S24,6.68,24,6.957v3.922
	C24,11.155,23.776,11.378,23.5,11.378z"/>
<path d="M27.096,41.126h-7.192c-0.276,0-0.5-0.224-0.5-0.5s0.224-0.5,0.5-0.5h7.192c0.276,0,0.5,0.224,0.5,0.5
	S27.372,41.126,27.096,41.126z"/>
<path d="M31.683,11.491l4.001,3l-4.001,3H12.317v-6H31.683 M31.683,10.491H12.317c-0.552,0-1,0.448-1,1v6c0,0.552,0.448,1,1,1
	h19.365c0.216,0,0.427-0.07,0.6-0.2l4.001-3c0.252-0.189,0.4-0.485,0.4-0.8s-0.148-0.611-0.4-0.8l-4.001-3
	C32.11,10.561,31.899,10.491,31.683,10.491L31.683,10.491z"/>
<path d="M34.683,21.497v6H15.317l-4.001-3l4.001-3H34.683 M34.683,20.497H15.317c-0.216,0-0.427,0.07-0.6,0.2l-4.001,3
	c-0.252,0.189-0.4,0.485-0.4,0.8s0.148,0.611,0.4,0.8l4.001,3c0.173,0.13,0.384,0.2,0.6,0.2h19.365c0.552,0,1-0.448,1-1v-6
	C35.683,20.945,35.235,20.497,34.683,20.497L34.683,20.497z"/>
</svg>
