<?xml version="1.0" encoding="utf-8"?>
<!-- Generator: Adobe Illustrator 19.0.0, SVG Export Plug-In . SVG Version: 6.00 Build 0)  -->
<svg version="1.1" xmlns="http://www.w3.org/2000/svg" xmlns:xlink="http://www.w3.org/1999/xlink" x="0px" y="0px"
	 viewBox="0 0 46 46" style="enable-background:new 0 0 46 46;" xml:space="preserve">
<style type="text/css">
	.st0{fill:#FFFFFF;}
	.st1{display:none;fill:#262626;}
	.st2{fill-rule:evenodd;clip-rule:evenodd;fill:#262626;}
</style>
<g id="BG">
	<circle id="XMLID_1_" class="st0" cx="23" cy="23" r="23"/>
</g>
<g id="Layer_2">
	<path id="facebook" class="st1" d="M31.007,14H14.993C14.445,14,14,14.445,14,14.993v16.013C14,31.555,14.445,32,14.993,32h8.621
		v-6.971h-2.346v-2.717h2.346V20.31c0-2.325,1.42-3.591,3.494-3.591c0.993,0,1.847,0.074,2.096,0.107v2.43l-1.438,0.001
		c-1.128,0-1.346,0.536-1.346,1.323v1.734h2.69l-0.35,2.717h-2.34V32h4.587C31.555,32,32,31.555,32,31.007V14.993
		C32,14.445,31.555,14,31.007,14z"/>
	<path id="instagram" class="st2" d="M16.31,14H29.69C30.96,14,32,15.04,32,16.31V29.69C32,30.96,30.96,32,29.69,32H16.31
		C15.04,32,14,30.96,14,29.69V16.31C14,15.04,15.04,14,16.31,14L16.31,14z M27.112,16c-0.446,0-0.81,0.365-0.81,0.81v1.94
		c0,0.446,0.365,0.81,0.81,0.81h2.035c0.446,0,0.81-0.365,0.81-0.81v-1.94c0-0.446-0.365-0.81-0.81-0.81H27.112L27.112,16z
		 M29.966,21.612h-1.584c0.15,0.49,0.231,1.008,0.231,1.544c0,2.994-2.505,5.421-5.595,5.421c-3.09,0-5.595-2.427-5.595-5.421
		c0-0.537,0.081-1.055,0.231-1.544H16v7.604c0,0.394,0.322,0.716,0.716,0.716H29.25c0.394,0,0.716-0.322,0.716-0.716V21.612
		L29.966,21.612z M23.017,19.458c-1.997,0-3.615,1.568-3.615,3.503c0,1.935,1.619,3.503,3.615,3.503
		c1.997,0,3.615-1.568,3.615-3.503C26.632,21.026,25.014,19.458,23.017,19.458z"/>
	<path id="twitter" class="st1" d="M34.057,16.131c-0.815,0.361-1.691,0.606-2.61,0.716c0.938-0.562,1.659-1.453,1.998-2.514
		c-0.878,0.521-1.85,0.899-2.886,1.103C29.731,14.552,28.55,14,27.243,14c-2.51,0-4.544,2.035-4.544,4.544
		c0,0.356,0.04,0.703,0.118,1.036c-3.777-0.189-7.125-1.999-9.366-4.748c-0.391,0.671-0.615,1.452-0.615,2.285
		c0,1.576,0.802,2.967,2.022,3.782c-0.745-0.024-1.446-0.228-2.058-0.568c0,0.019,0,0.038,0,0.057c0,2.202,1.566,4.038,3.645,4.456
		c-0.381,0.104-0.783,0.159-1.197,0.159c-0.293,0-0.577-0.028-0.855-0.081c0.578,1.805,2.256,3.119,4.245,3.156
		c-1.555,1.219-3.515,1.945-5.644,1.945c-0.367,0-0.729-0.022-1.084-0.063c2.011,1.289,4.4,2.042,6.966,2.042
		c8.358,0,12.929-6.924,12.929-12.929c0-0.197-0.004-0.393-0.013-0.588C32.678,17.842,33.448,17.042,34.057,16.131z"/>
</g>
</svg>
