<?xml version="1.0" encoding="utf-8"?>
<!-- Generator: Adobe Illustrator 17.0.0, SVG Export Plug-In . SVG Version: 6.00 Build 0)  -->
<!DOCTYPE svg PUBLIC "-//W3C//DTD SVG 1.1//EN" "http://www.w3.org/Graphics/SVG/1.1/DTD/svg11.dtd">
<svg version="1.1" id="Layer_1" xmlns="http://www.w3.org/2000/svg" xmlns:xlink="http://www.w3.org/1999/xlink" x="0px" y="0px"
	 width="663.353px" height="162.361px" viewBox="89.268 216.46 663.353 162.361"
	 enable-background="new 89.268 216.46 663.353 162.361" xml:space="preserve">
<g>
	<g>
		<path fill="#FFFFFF" d="M251.342,286.506l9.449-7.945c3.541,4.832,9.448,9.133,16.114,9.133c7.41,0,11.709-3.334,11.709-8.814
			c0-5.693-3.539-9.022-11.065-12.355l-6.008-2.576c-11.498-5.047-17.201-12.355-17.201-22.236
			c0-12.247,11.067-20.197,22.678-20.197c8.804,0,15.797,3.005,21.377,9.667l-8.59,8.916c-3.983-4.729-7.412-6.765-12.899-6.765
			c-5.16,0-10.098,3.005-10.098,8.268c0,4.944,3.432,8.488,11.069,11.713l5.907,2.684c10.42,4.518,17.506,11.173,17.506,21.814
			c0,12.886-9.562,21.697-24.272,21.697C265.521,299.507,256.162,294.353,251.342,286.506z"/>
		<path fill="#FFFFFF" d="M336.845,298.633h-8.962c-10.478,0-16.703-6.226-16.703-16.602v-27.298h-8.904v-10.7h8.904V231.17h12.02
			v12.863h13.646v10.7H323.2v24.792c0,5.564,1.517,8.078,7.75,8.078h5.896L336.845,298.633L336.845,298.633z"/>
		<path fill="#FFFFFF" d="M342.561,271.334c0-15.943,12.016-28.176,28.289-28.176c16.16,0,28.278,12.232,28.278,28.176
			c0,15.943-12.118,28.173-28.278,28.173C354.577,299.507,342.561,287.277,342.561,271.334 M386.785,271.334
			c0-9.505-6.655-16.712-15.935-16.712c-9.402,0-15.945,7.207-15.945,16.712c0,9.498,6.543,16.703,15.945,16.703
			C380.13,288.037,386.785,280.832,386.785,271.334"/>
		<g>
			<path fill="#FFFFFF" d="M406.86,271.334c0-15.943,12.006-28.176,28.166-28.176c8.746,0,15.828,3.604,20.864,9.062l-8.192,8.41
				c-2.84-3.277-6.994-5.792-12.672-5.792c-9.279,0-15.833,6.99-15.833,16.495c0,9.498,6.554,16.492,15.833,16.492
				c5.678,0,9.832-2.516,12.672-5.795l8.192,8.41c-5.036,5.465-12.118,9.065-20.864,9.065
				C418.866,299.507,406.86,287.277,406.86,271.334"/>
		</g>
		<polygon fill="#FFFFFF" points="476.636,298.633 464.627,298.633 464.627,222.398 476.636,222.398 476.636,268.711 
			498.475,244.033 512.677,244.033 489.964,269.913 515.403,298.633 500.661,298.633 476.636,271.334 		"/>
		<path fill="#FFFFFF" d="M533.126,264.23v34.405h-12.02v-76.238h12.02v26.763c3.823-4.144,9.618-6.002,15.285-6.002
			c13.547,0,22.181,9.389,22.181,23.478v31.999h-12.016v-31.776c0-5.901-4.381-12.237-12.45-12.237
			C539.905,254.622,535.207,257.9,533.126,264.23"/>
		<g>
			<path fill="#FFFFFF" d="M580.326,271.334c0-15.943,12.006-28.176,28.289-28.176c16.16,0,28.278,12.232,28.278,28.176
				c0,15.943-12.118,28.173-28.278,28.173C592.332,299.507,580.326,287.277,580.326,271.334 M624.55,271.334
				c0-9.505-6.655-16.712-15.935-16.712c-9.402,0-15.944,7.207-15.944,16.712c0,9.498,6.542,16.703,15.944,16.703
				C617.894,288.037,624.55,280.832,624.55,271.334"/>
		</g>
		<rect x="646.639" y="222.397" fill="#FFFFFF" width="12.006" height="76.235"/>
		<path fill="#FFFFFF" d="M682.42,263.91v34.723h-12.017v-54.6h12.017v5.127c3.71-4.256,9.054-5.998,14.076-5.998
			c7.653,0,13.444,3.056,17.042,8.404c5.139-6.771,12.777-8.404,18.018-8.404c13.431,0,21.065,9.385,21.065,23.475v31.996H740.62
			V266.86c0-5.902-3.382-12.237-11.247-12.237c-5.456,0-9.825,3.278-11.906,9.503c0.112,0.875,0.112,1.637,0.112,2.512v31.996
			h-12.016v-31.773c0-5.902-3.484-12.237-11.353-12.237C688.86,254.622,684.377,257.9,682.42,263.91"/>
	</g>
	<g>
		<path fill="#FFFFFF" d="M100.732,332.859H89.268v-5.014h28.17v5.014h-11.52v35.467h-5.186V332.859z"/>
		<path fill="#FFFFFF" d="M126.896,349.855v18.471h-4.905v-40.48h4.905v15.162c2.163-2.678,5.533-3.65,8.839-3.65
			c6.441,0,11.006,4.508,11.006,11.578v17.391h-4.908v-17.105c0-4.166-2.733-7.244-7.179-7.244
			C130.604,343.977,127.864,346.256,126.896,349.855z"/>
		<path fill="#FFFFFF" d="M165.546,368.783c-8.437,0-14.652-6.498-14.652-14.717c0-8.26,6.324-14.709,14.311-14.709
			c7.981,0,13.8,5.762,13.914,15.912h-23.15c0.512,5.072,4.388,8.896,9.577,8.896c3.595,0,6.501-1.592,8.325-3.426l3.138,3.426
			C174.555,366.732,170.509,368.783,165.546,368.783z M156.195,350.99h17.393c-0.683-4.674-4.334-7.182-8.669-7.125
			C160.814,343.865,157.218,346.605,156.195,350.99z"/>
		<path fill="#FFFFFF" d="M214.563,327.383c5.076,0,9.636,1.654,13.117,4.791l-3.023,3.936c-2.625-2.225-6.047-3.766-10.094-3.766
			c-8.842,0-15.398,6.844-15.398,15.742c0,8.895,6.557,15.736,15.398,15.736c4.047,0,7.469-1.537,10.094-3.762l3.023,3.936
			c-3.482,3.133-8.041,4.787-13.117,4.787c-11.576,0-20.703-8.949-20.703-20.697C193.86,336.336,202.987,327.383,214.563,327.383z"
			/>
		<path fill="#FFFFFF" d="M253.438,365.477c-2.335,2.168-5.588,3.307-9.064,3.307c-8.381,0-14.545-6.445-14.545-14.717
			c0-8.26,6.164-14.709,14.545-14.709c3.477,0,6.729,1.143,9.064,3.311v-2.85h4.904v28.508h-4.904V365.477z M253.438,359.545V348.6
			c-1.652-2.682-4.848-4.623-8.953-4.623c-5.583,0-9.576,4.449-9.576,10.09c0,5.652,3.993,10.1,9.576,10.1
			C248.59,364.166,251.785,362.225,253.438,359.545z"/>
		<path fill="#FFFFFF" d="M269.909,365.477v13.344h-4.904v-39.002h4.904v2.85c2.339-2.168,5.59-3.311,9.064-3.311
			c8.386,0,14.541,6.449,14.541,14.709c0,8.271-6.155,14.717-14.541,14.717C275.499,368.783,272.248,367.645,269.909,365.477z
			 M288.44,354.066c0-5.641-3.991-10.09-9.58-10.09c-4.104,0-7.297,1.941-8.951,4.623v10.945c1.654,2.68,4.847,4.621,8.951,4.621
			C284.449,364.166,288.44,359.719,288.44,354.066z"/>
		<path fill="#FFFFFF" d="M298.236,333.826v-5.98h4.904v5.98H298.236z M298.236,368.326v-28.508h4.904v28.508H298.236z"/>
		<path fill="#FFFFFF" d="M326.292,368.326h-4.336c-5.473,0-8.608-2.85-8.608-8.266v-15.797h-5.131v-4.445h5.131v-7.301h4.906v7.301
			h8.038v4.445h-8.038v15.055c0,2.906,1.082,4.561,4.217,4.561h3.821L326.292,368.326L326.292,368.326z"/>
		<path fill="#FFFFFF" d="M352.921,365.477c-2.339,2.168-5.589,3.307-9.067,3.307c-8.382,0-14.543-6.445-14.543-14.717
			c0-8.26,6.161-14.709,14.543-14.709c3.479,0,6.729,1.143,9.067,3.311v-2.85h4.904v28.508h-4.904V365.477z M352.921,359.545V348.6
			c-1.656-2.682-4.847-4.623-8.953-4.623c-5.587,0-9.58,4.449-9.58,10.09c0,5.652,3.993,10.1,9.58,10.1
			C348.074,364.166,351.265,362.225,352.921,359.545z"/>
		<path fill="#FFFFFF" d="M364.483,327.846h4.904v40.48h-4.904V327.846z"/>
		<path fill="#FFFFFF" d="M385.455,354.066c0-8.207,6.216-14.709,14.823-14.709c8.558,0,14.772,6.502,14.772,14.709
			c0,8.219-6.215,14.717-14.772,14.717C391.671,368.783,385.455,362.285,385.455,354.066z M409.977,354.066
			c0-5.641-3.881-10.09-9.698-10.09c-5.815,0-9.749,4.449-9.749,10.09c0,5.652,3.934,10.1,9.749,10.1
			C406.096,364.166,409.977,359.719,409.977,354.066z"/>
		<path fill="#FFFFFF" d="M426.445,344.264v24.062h-4.847v-24.062h-4.962v-4.445h4.794c-1.312-1.256-2.113-3.08-2.113-5.021
			c0-3.988,3.308-6.951,8.323-6.951h6.732v4.445h-5.93c-2.453,0-4.339,1.139-4.339,3.59c0,2.625,2.284,3.938,4.282,3.938h5.986
			v4.445h-7.926V344.264z"/>
		<path fill="#FFFFFF" d="M448.795,362.512l3.933-3.426c1.94,2.516,5.251,4.734,9.184,4.734c4.677,0,7.64-2.164,7.64-5.697
			c0-3.707-2.278-5.65-6.611-7.531l-3.709-1.594c-6.157-2.625-8.838-6.389-8.838-11.465c0-6.156,5.814-10.15,11.801-10.15
			c4.733,0,8.616,1.885,11.352,5.193l-3.652,3.646c-2.112-2.51-4.333-3.879-7.865-3.879c-3.426,0-6.446,1.939-6.446,5.307
			c0,2.963,1.712,4.959,5.984,6.838l3.711,1.602c5.474,2.393,9.523,5.758,9.523,11.459c0,6.617-4.907,11.234-12.832,11.234
			C456.092,368.783,451.189,365.934,448.795,362.512z"/>
		<path fill="#FFFFFF" d="M479.239,354.066c0-8.207,6.216-14.709,14.654-14.709c4.732,0,8.383,1.936,10.891,4.508l-3.136,3.422
			c-1.823-1.824-4.391-3.311-7.755-3.311c-5.587,0-9.578,4.449-9.578,10.09c0,5.652,3.991,10.1,9.578,10.1
			c3.364,0,5.932-1.482,7.755-3.309l3.136,3.42c-2.508,2.568-6.158,4.506-10.891,4.506
			C485.455,368.783,479.239,362.285,479.239,354.066z"/>
		<path fill="#FFFFFF" d="M530.835,365.477c-2.338,2.168-5.588,3.307-9.064,3.307c-8.384,0-14.54-6.445-14.54-14.717
			c0-8.26,6.156-14.709,14.54-14.709c3.476,0,6.726,1.143,9.064,3.311v-2.85h4.904v28.508h-4.904V365.477z M530.835,359.545V348.6
			c-1.652-2.684-4.848-4.623-8.951-4.623c-5.59,0-9.582,4.449-9.582,10.09c0,5.652,3.992,10.1,9.582,10.1
			C525.987,364.166,529.183,362.225,530.835,359.545z"/>
		<path fill="#FFFFFF" d="M547.304,349.852v18.475h-4.905v-28.508h4.905v3.189c2.168-2.682,5.534-3.65,8.841-3.65
			c6.44,0,11.006,4.508,11.006,11.578v17.391h-4.906v-17.105c0-4.166-2.74-7.244-7.185-7.244
			C551.011,343.977,548.272,346.256,547.304,349.852z"/>
		<path fill="#FFFFFF" d="M594.908,365.477c-2.338,2.168-5.588,3.307-9.064,3.307c-8.385,0-14.543-6.445-14.543-14.717
			c0-8.26,6.158-14.709,14.543-14.709c3.477,0,6.727,1.143,9.064,3.311v-14.826h4.904v40.484h-4.904V365.477z M594.908,359.545
			V348.6c-1.656-2.684-4.848-4.623-8.953-4.623c-5.588,0-9.581,4.449-9.581,10.09c0,5.652,3.993,10.1,9.581,10.1
			C590.06,364.166,593.252,362.225,594.908,359.545z"/>
		<path fill="#FFFFFF" d="M606.471,333.826v-5.984h4.906v5.984H606.471z M606.471,368.326v-28.508h4.906v28.508H606.471z"/>
		<path fill="#FFFFFF" d="M622.95,349.852v18.475h-4.9v-28.508h4.9v3.189c2.168-2.682,5.534-3.65,8.841-3.65
			c6.443,0,11.007,4.508,11.007,11.578v17.391h-4.904v-17.105c0-4.166-2.738-7.244-7.186-7.244
			C626.661,343.977,623.922,346.256,622.95,349.852z"/>
		<path fill="#FFFFFF" d="M671.698,365.477c-2.342,2.168-5.59,3.307-9.066,3.307c-8.389,0-14.545-6.445-14.545-14.717
			c0-8.26,6.156-14.709,14.545-14.709c3.477,0,6.725,1.143,9.066,3.311v-2.85h4.902v28.508h-4.902V365.477z M671.698,359.545V348.6
			c-1.65-2.684-4.85-4.623-8.956-4.623c-5.586,0-9.579,4.449-9.579,10.09c0,5.652,3.993,10.1,9.579,10.1
			C666.849,364.166,670.048,362.225,671.698,359.545z"/>
		<path fill="#FFFFFF" d="M679.041,339.818h5.537l9.523,19.211l9.579-19.211h5.53l-15.109,28.965L679.041,339.818z"/>
		<path fill="#FFFFFF" d="M712.794,333.826v-5.984h4.898v5.984H712.794z M712.794,368.326v-28.508h4.898v28.508H712.794z"/>
		<path fill="#FFFFFF" d="M746.144,365.477c-2.335,2.168-5.587,3.307-9.064,3.307c-8.383,0-14.545-6.445-14.545-14.717
			c0-8.26,6.162-14.709,14.545-14.709c3.477,0,6.729,1.143,9.064,3.311v-2.85h4.902v28.508h-4.902V365.477z M746.144,359.545V348.6
			c-1.654-2.684-4.846-4.623-8.951-4.623c-5.59,0-9.579,4.449-9.579,10.09c0,5.652,3.989,10.1,9.579,10.1
			C741.298,364.166,744.489,362.225,746.144,359.545z"/>
	</g>
	<path fill="#FFFFFF" d="M196.633,253.637l-35.092-35.096l-35.097,35.096L89.268,216.46v83.047H233.8V216.46L196.633,253.637z
		 M101.023,244.843l25.421,25.419l35.097-35.096l35.092,35.096l25.41-25.418v43.307h-121.02V244.843z"/>
</g>
</svg>
