<?xml version="1.0" encoding="utf-8"?>
<!-- Generator: Adobe Illustrator 19.1.0, SVG Export Plug-In . SVG Version: 6.00 Build 0)  -->
<svg version="1.1" id="Layer_1" xmlns="http://www.w3.org/2000/svg" xmlns:xlink="http://www.w3.org/1999/xlink" x="0px" y="0px"
	 width="47px" height="47px" viewBox="0 0 47 47" style="enable-background:new 0 0 47 47;" xml:space="preserve">
<g>
	<path d="M23.5,1C35.926,1,46,11.074,46,23.5C46,35.926,35.926,46,23.5,46C11.074,46,1,35.926,1,23.5C1,11.074,11.074,1,23.5,1
		 M23.5,0C10.542,0,0,10.542,0,23.5S10.542,47,23.5,47S47,36.458,47,23.5S36.458,0,23.5,0L23.5,0z"/>
</g>
<path d="M26.499,17.558v16.915h2v3h-9.996v-3h2V20.558h-2.001v-3H26.499 M26.499,16.558h-7.998c-0.552,0-1,0.448-1,1v3
	c0,0.552,0.448,1,1,1h1.001v11.915h-1c-0.552,0-1,0.448-1,1v3c0,0.552,0.448,1,1,1h9.996c0.552,0,1-0.448,1-1v-3
	c0-0.552-0.448-1-1-1h-1V17.558C27.499,17.005,27.051,16.558,26.499,16.558L26.499,16.558z"/>
<path d="M23.471,7.148c1.672,0,3.028,1.355,3.028,3.028s-1.355,3.028-3.028,3.028s-3.028-1.355-3.028-3.028
	S21.799,7.148,23.471,7.148 M23.471,6.148c-2.221,0-4.028,1.807-4.028,4.028s1.807,4.028,4.028,4.028s4.028-1.807,4.028-4.028
	S25.692,6.148,23.471,6.148L23.471,6.148z"/>
</svg>
