<?xml version="1.0" encoding="utf-8"?>
<!-- Generator: Adobe Illustrator 19.1.0, SVG Export Plug-In . SVG Version: 6.00 Build 0)  -->
<svg version="1.1" id="Layer_1" xmlns="http://www.w3.org/2000/svg" xmlns:xlink="http://www.w3.org/1999/xlink" x="0px" y="0px"
	 width="47px" height="47px" viewBox="0 0 47 47" style="enable-background:new 0 0 47 47;" xml:space="preserve">
<g>
	<path d="M23.5,1C35.926,1,46,11.074,46,23.5C46,35.926,35.926,46,23.5,46C11.074,46,1,35.926,1,23.5C1,11.074,11.074,1,23.5,1
		 M23.5,0C10.542,0,0,10.542,0,23.5S10.542,47,23.5,47S47,36.458,47,23.5S36.458,0,23.5,0L23.5,0z"/>
</g>
<path d="M39.499,19.096c-0.134,0-0.269-0.054-0.367-0.16c-4.021-4.341-9.72-6.83-15.633-6.83s-11.611,2.489-15.633,6.83
	c-0.188,0.203-0.504,0.214-0.707,0.027c-0.203-0.188-0.215-0.504-0.027-0.707c4.21-4.544,10.175-7.15,16.366-7.15
	s12.157,2.606,16.368,7.15c0.188,0.203,0.175,0.519-0.027,0.707C39.743,19.052,39.621,19.096,39.499,19.096z"/>
<path d="M34.845,23.406c-0.135,0-0.269-0.054-0.367-0.16c-2.823-3.048-6.825-4.797-10.979-4.797c-4.153,0-8.154,1.748-10.979,4.796
	c-0.188,0.203-0.505,0.214-0.707,0.027c-0.203-0.188-0.215-0.504-0.027-0.707c3.013-3.252,7.281-5.117,11.712-5.117
	c4.431,0,8.701,1.865,11.713,5.117c0.188,0.203,0.175,0.519-0.027,0.707C35.088,23.362,34.967,23.406,34.845,23.406z"/>
<path d="M16.808,27.716c-0.122,0-0.244-0.044-0.34-0.133c-0.203-0.188-0.215-0.505-0.027-0.707c1.815-1.959,4.388-3.083,7.057-3.083
	c2.67,0,5.243,1.124,7.057,3.083c0.188,0.203,0.175,0.52-0.027,0.707c-0.204,0.188-0.519,0.175-0.707-0.027
	c-1.625-1.756-3.93-2.762-6.323-2.762c-2.392,0-4.697,1.007-6.324,2.763C17.077,27.663,16.943,27.716,16.808,27.716z"/>
<path d="M23.499,36.687c-1.806,0-3.275-1.47-3.275-3.275s1.469-3.275,3.275-3.275c1.806,0,3.276,1.47,3.276,3.275
	S25.305,36.687,23.499,36.687z M23.499,31.136c-1.254,0-2.275,1.021-2.275,2.275s1.021,2.275,2.275,2.275
	c1.255,0,2.276-1.021,2.276-2.275S24.754,31.136,23.499,31.136z"/>
</svg>
