<?xml version="1.0" encoding="utf-8"?>
<!-- Generator: Adobe Illustrator 19.1.0, SVG Export Plug-In . SVG Version: 6.00 Build 0)  -->
<svg version="1.1" id="Layer_1" xmlns="http://www.w3.org/2000/svg" xmlns:xlink="http://www.w3.org/1999/xlink" x="0px" y="0px"
	 viewBox="0 0 172.244 205.163" style="enable-background:new 0 0 172.244 205.163;" xml:space="preserve">
<style type="text/css">
	.st0{fill:#FFFFFF;}
</style>
<path class="st0" d="M120.325,100.812c-5.073,6.01-7.637,9.9-7.637,13.521c0,3.072,2,4.773,4.689,4.914
	c1.504,0.084,3.463-1.475,3.463-1.475s0.358,1.715-0.11,3.205c-0.903,2.887-2.652,3.615-4.417,3.615
	c-1.779,0-2.92-0.387-3.486-0.957c0.129,0.494,0.285,2.018,3.218,2.018c0.156,1.105-1.403,2.291-2.674,2.291
	c-1.616,0-3.925-0.76-4.507-2.592v-11.605c2.138-4.77,2.969-10.91,3.249-14.506c0.285-3.596,1.684-36.908,1.684-36.908
	s13.261,8.403,13.261,21.723C127.059,89.711,124.845,95.468,120.325,100.812z M120.03,36.149c0,0.87,0.114,1.532,0.631,2.123
	l0.139,0.147c0.796,0.891,0.981,1.119,0.981,1.714c0,0.54-0.371,1.384-1.389,1.384c-0.903,0-1.11-0.286-1.53-1.422
	c-0.422-1.152-1.56-2.305-3.155-2.305c-1.564,0-3.324,1.368-3.324,3.322c0,2.085,1.695,3.329,3.324,3.329
	c0.935,0,1.368-0.266,1.673-0.455c0.199-0.123,0.306-0.182,0.479-0.182c0.213,0,0.363,0.135,0.454,0.24
	c0.255,0.309,0.367,0.814,0.259,1.312c-0.264,1.431-2.969,3.643-6.006,3.643c-4.535,0-7.282-4.073-7.282-7.015
	C103.547,46.122,99.698,47,97.043,47c-7.164,0-8.635-6.364-8.635-8.064c0-1.145,0.371-2.081,0.704-2.246
	c0.038-0.013,0.165-0.071,0.412,0.14l0.272,0.258c0.867,0.789,2.504,2.258,4.775,2.258c2.558,0,5.221-1.916,5.221-5.137
	c0-3.414-2.615-5.195-5.195-5.195c-2.148,0-3.373,1.174-4.179,1.958c-0.312,0.309-0.641,0.638-0.823,0.638
	c-0.367,0-0.703-0.148-0.912-0.396c-0.177-0.194-0.272-0.443-0.272-0.722c0-0.042,0.009-0.098,0.009-0.152
	c0.031-0.233,0.304-0.515,0.623-0.84c0.713-0.738,1.69-1.747,1.69-3.692c0-2.233-1.806-4.622-4.528-4.635
	c-2.706,0.013-4.52,2.401-4.52,4.635c0,1.945,0.971,2.954,1.675,3.692c0.325,0.325,0.61,0.607,0.635,0.84
	c0.013,0.055,0.013,0.11,0.013,0.152c0,0.278-0.095,0.527-0.272,0.722c-0.22,0.249-0.558,0.396-0.92,0.396
	c-0.173,0-0.5-0.329-0.816-0.638c-0.821-0.784-2.032-1.958-4.178-1.958c-2.581,0-5.2,1.781-5.2,5.195
	c0,3.221,2.652,5.137,5.212,5.137c2.281,0,3.91-1.469,4.779-2.258l0.289-0.258c0.23-0.211,0.359-0.152,0.407-0.14
	c0.336,0.165,0.699,1.102,0.699,2.246c0,1.7-1.481,8.064-8.644,8.064c-2.657,0-6.508-0.878-8.24-5.014
	c0,2.941-2.749,7.015-7.274,7.015c-3.039,0-5.748-2.212-6.017-3.643c-0.095-0.498,0-1.004,0.26-1.312
	c0.086-0.105,0.243-0.24,0.445-0.24c0.177,0,0.285,0.059,0.492,0.182c0.299,0.189,0.741,0.455,1.673,0.455
	c1.621,0,3.319-1.244,3.319-3.329c0-1.954-1.751-3.322-3.319-3.322c-1.604,0-2.73,1.152-3.159,2.305
	c-0.407,1.136-0.618,1.422-1.522,1.422c-1.015,0-1.394-0.844-1.394-1.384c0-0.595,0.19-0.823,0.975-1.714l0.148-0.147
	c0.519-0.591,0.623-1.253,0.623-2.123c0-1.093-0.779-4.216-4.256-4.216c-1.975,0-4.742,1.912-4.742,1.912l9.369,18.76
	c0,0,14.17-2.857,33.46-2.857c19.296,0,33.477,2.857,33.477,2.857l9.351-18.76c0,0-2.756-1.912-4.732-1.912
	C120.825,31.934,120.03,35.057,120.03,36.149z M86.205,60.615c14.033,0,22.824,1.229,24.396,1.465
	c-0.116,2.638-0.99,24.149-1.089,30.188c-0.03,2.482-0.705,10.898-1.336,14.059c-1.41,6.973-7.609,18.777-21.972,18.777
	c-14.348,0-20.566-11.805-21.963-18.777c-0.635-3.164-1.317-11.585-1.344-14.059c-0.086-6.039-0.977-27.551-1.08-30.188
	C63.387,61.844,72.181,60.615,86.205,60.615z M71.771,67.364c-0.013,0.262,0.319,0.469,1.055,0.658
	c2.021,0.523,4.879,1.596,6.999,3.723c2.239,2.245,3.056,4.461,3.349,5.93c0.156,0.755,0.374,1.118,0.671,1.118
	c0.276,0,0.515-0.333,0.726-1.017c0.587-1.883,0.743-4.748-1.88-7.707c-2.748-3.081-7.057-3.317-8.314-3.317
	c-0.477,0-0.989,0.034-1.525,0.11C72.142,66.946,71.788,67.115,71.771,67.364z M72.86,79.729c4.214,0,6.734-1.393,6.734-2.738
	c0-1.194-2.313-4.655-6.729-4.655c-1.617,0-2.809,0.342-3.748,1.072c-0.414,0.316-0.612,0.679-0.517,0.953
	c0.05,0.156,0.215,0.342,0.698,0.342c1.427,0,2.305,1.309,2.305,2.25c0,1.029-0.688,1.396-1.27,1.396
	c-0.49,0-0.912,0.274-0.948,0.608c-0.008,0.093,0.004,0.409,0.536,0.515C70.881,79.658,71.731,79.729,72.86,79.729z M92.455,111.937
	c-0.078-0.25-0.316-0.393-0.631-0.393H80.588c-0.329,0-0.568,0.143-0.644,0.396c-0.074,0.244,0.042,0.523,0.285,0.688
	c0.371,0.262,2.692,1.807,3.184,2.111c0.433,0.274,0.648,0.312,1.176,0.312h3.224c0.528,0,0.76-0.043,1.188-0.312
	c0.503-0.312,2.813-1.857,3.176-2.111C92.419,112.46,92.531,112.181,92.455,111.937z M95.042,108.058
	c-0.441-0.211-1.163-0.557-1.943-0.938c-1.435-0.691-3.06-1.477-3.592-1.717c-0.481-0.232-0.688-0.266-1.192-0.266h-4.267
	c-0.511,0-0.717,0.033-1.192,0.266c-0.842,0.379-4.347,2.08-5.526,2.654c-0.403,0.189-0.619,0.516-0.547,0.828
	c0.049,0.215,0.247,0.438,0.671,0.438h17.451c0.422,0,0.627-0.223,0.673-0.438C95.648,108.573,95.441,108.247,95.042,108.058z
	 M107.818,76.991c0-1.194-2.313-4.655-6.734-4.655c-1.616,0-2.809,0.342-3.746,1.072c-0.411,0.308-0.618,0.684-0.527,0.953
	c0.051,0.156,0.215,0.342,0.701,0.342c1.431,0,2.307,1.309,2.307,2.25c0,1.029-0.678,1.396-1.262,1.396
	c-0.492,0-0.92,0.274-0.95,0.608c-0.008,0.093,0,0.409,0.532,0.515c0.95,0.186,1.802,0.257,2.933,0.257
	C105.298,79.729,107.818,78.337,107.818,76.991z M86.213,95.404c-0.682,0-1.249,0.203-1.737,0.616
	c-0.829,0.696-2.935,2.516-3.224,2.883c-0.186,0.207-0.243,0.435-0.156,0.62c0.074,0.169,0.296,0.372,0.903,0.372h11.229
	c0.424,0,0.701-0.118,0.783-0.334c0.078-0.193-0.021-0.418-0.293-0.671c-0.641-0.595-2.61-2.481-2.931-2.789V79.32
	c0-4.777,1.068-9.656,8.985-9.656h4.504c3.064,0,4.727-2.676,4.746-2.701l0.129-0.215h-0.251c0,0-3.564,0.008-5.217,0.008
	c-0.726,0-1.336,0-2.021,0c-0.886-0.004-1.901-0.008-3.459-0.008c-5.556,0-9.749,4.541-9.749,10.563v16.705
	c0,0.962-0.379,1.388-1.228,1.388H86.213z M118.515,54.927c0,0-13.653-2.617-32.31-2.617c-18.663,0-32.297,2.617-32.297,2.617
	l2.576,5.183c0,0,10.068-2.339,29.721-2.339c19.655,0,29.728,2.339,29.728,2.339L118.515,54.927z M106.556,40.894
	c1.901,0,3.448-1.549,3.448-3.448c0-1.899-1.546-3.44-3.448-3.44c-1.899,0-3.446,1.54-3.446,3.44
	C103.11,39.345,104.657,40.894,106.556,40.894z M63.556,125.353v-11.605c-2.144-4.77-2.982-10.914-3.269-14.51
	c-0.276-3.597-1.663-36.908-1.663-36.908s-13.271,8.407-13.271,21.731c0,5.646,2.22,11.407,6.736,16.755
	c5.062,6.006,7.637,9.9,7.637,13.518c0,3.072-2.013,4.773-4.689,4.908c-1.509,0.09-3.461-1.469-3.461-1.469
	s-0.367,1.719,0.104,3.205c0.92,2.887,2.644,3.615,4.429,3.615c1.769,0,2.912-0.383,3.48-0.953
	c-0.135,0.494-0.276,2.014-3.225,2.014c-0.156,1.105,1.418,2.291,2.68,2.291C60.661,127.944,62.967,127.185,63.556,125.353z
	 M65.865,40.894c1.889,0,3.431-1.549,3.431-3.448c0-1.899-1.542-3.44-3.431-3.44c-1.901,0-3.453,1.54-3.453,3.44
	C62.412,39.345,63.963,40.894,65.865,40.894z M105.975,136.794v-18.016c0.112-0.035-8.375,9.652-19.772,9.652
	c-12.978,0-19.824-9.918-19.763-9.902v18.266c0,6.133-3.682,9.488-3.682,9.488l5.822,6.512h35.26l5.809-6.512
	C109.649,146.282,105.975,142.927,105.975,136.794z M172.143,6.093c0.107,4.657,0.895,46.265-4.501,72.871
	c-9.309,45.828-35.396,87.155-77.537,122.833l-3.975,3.366l-3.975-3.366C40.001,166.111,13.917,124.784,4.626,78.964
	c-5.65-27.875-4.56-71.155-4.511-72.983L0.285,0h171.721L172.143,6.093z M165.742,6.407H6.514
	c-0.088,3.587-0.95,44.934,4.392,71.283c8.984,44.314,34.296,84.377,75.224,119.079c40.92-34.694,66.232-74.757,75.232-119.079
	C166.553,52.118,165.86,11.748,165.742,6.407z"/>
</svg>
